<svg viewBox="-2.4 -2.4 28.80 28.80" fill="none" xmlns="http://www.w3.org/2000/svg" stroke="#000000"
    stroke-width="0.00024000000000000003">
    <g id="SVGRepo_bgCarrier" stroke-width="0"></g>
    <g id="SVGRepo_tracerCarrier" stroke-linecap="round" stroke-linejoin="round" stroke="#CCCCCC"
        stroke-width="1.296">
        <path
            d="M5 12V6C5 5.44772 5.44772 5 6 5H18C18.5523 5 19 5.44772 19 6V18C19 18.5523 18.5523 19 18 19H12M8.11111 12H12M12 12V15.8889M12 12L5 19"
            stroke="#87AED4" stroke-linecap="round" stroke-linejoin="round"></path>
    </g>
    <g id="SVGRepo_iconCarrier">
        <path
            d="M5 12V6C5 5.44772 5.44772 5 6 5H18C18.5523 5 19 5.44772 19 6V18C19 18.5523 18.5523 19 18 19H12M8.11111 12H12M12 12V15.8889M12 12L5 19"
            stroke="#87AED4" stroke-linecap="round" stroke-linejoin="round"></path>
    </g>
</svg>