<svg xmlns="http://www.w3.org/2000/svg" xmlns:xlink="http://www.w3.org/1999/xlink" width="100"
    zoomAndPan="magnify" viewBox="0 0 75 74.999997" height="100" preserveAspectRatio="xMidYMid meet"
    version="1.0">
    <defs>
        <g />
        <clipPath id="b0889004cb">
            <path
                d="M 2.25 1.800781 L 72.75 1.800781 L 72.75 71.699219 L 2.25 71.699219 Z M 2.25 1.800781 "
                clip-rule="nonzero" />
        </clipPath>
        <clipPath id="cd6eab8bb3">
            <path
                d="M 6.75 1.800781 L 68.25 1.800781 C 69.445312 1.800781 70.589844 2.273438 71.433594 3.117188 C 72.277344 3.960938 72.75 5.105469 72.75 6.300781 L 72.75 67.199219 C 72.75 68.394531 72.277344 69.539062 71.433594 70.382812 C 70.589844 71.226562 69.445312 71.699219 68.25 71.699219 L 6.75 71.699219 C 5.554688 71.699219 4.410156 71.226562 3.566406 70.382812 C 2.722656 69.539062 2.25 68.394531 2.25 67.199219 L 2.25 6.300781 C 2.25 3.816406 4.265625 1.800781 6.75 1.800781 Z M 6.75 1.800781 "
                clip-rule="nonzero" />
        </clipPath>
    </defs>
    <g clip-path="url(#b0889004cb)">
        <g clip-path="url(#cd6eab8bb3)">
            <path fill="#000000"
                d="M 2.25 1.800781 L 72.75 1.800781 L 72.75 71.699219 L 2.25 71.699219 Z M 2.25 1.800781 "
                fill-opacity="1" fill-rule="nonzero" />
        </g>
    </g>
    <rect x="-7.5" width="90" fill="#000000" y="-7.5" height="89.999996" fill-opacity="1" />
    <path stroke-linecap="butt" transform="matrix(0.75, 0, 0, 0.75, 0.0000015, -0.000001)"
        fill="none" stroke-linejoin="miter"
        d="M -0.000002 0.00000133333 L 100.000013 0.00000133333 L 100.000013 100.000016 L -0.000002 100.000016 Z M -0.000002 0.00000133333 "
        stroke="#9ecaff" stroke-width="12" stroke-opacity="1" stroke-miterlimit="4" />
    <g fill="#9ecaff" fill-opacity="1">
        <g transform="translate(4.062499, 56.993768)">
            <g>
                <path
                    d="M 14.859375 0.703125 C 10.835938 0.703125 7.613281 -0.425781 5.1875 -2.6875 C 2.757812 -4.957031 1.546875 -8.1875 1.546875 -12.375 L 9.125 -12.375 C 9.15625 -10.4375 9.601562 -8.894531 10.46875 -7.75 C 11.34375 -6.613281 12.75 -6.046875 14.6875 -6.046875 C 16.5 -6.046875 17.816406 -6.585938 18.640625 -7.671875 C 19.472656 -8.753906 19.890625 -10.1875 19.890625 -11.96875 L 19.890625 -41.453125 L 27.484375 -41.453125 L 27.484375 -11.96875 C 27.484375 -7.894531 26.347656 -4.765625 24.078125 -2.578125 C 21.804688 -0.390625 18.734375 0.703125 14.859375 0.703125 Z M 14.859375 0.703125 " />
            </g>
        </g>
    </g>
    <g fill="#9ecaff" fill-opacity="1">
        <g transform="translate(35.564751, 56.993768)">
            <g>
                <path
                    d="M 18.1875 0.703125 C 15.144531 0.703125 12.457031 0.179688 10.125 -0.859375 C 7.789062 -1.898438 5.953125 -3.398438 4.609375 -5.359375 C 3.273438 -7.316406 2.585938 -9.695312 2.546875 -12.5 L 10.546875 -12.5 C 10.617188 -10.5625 11.316406 -8.929688 12.640625 -7.609375 C 13.960938 -6.285156 15.789062 -5.625 18.125 -5.625 C 20.132812 -5.625 21.726562 -6.109375 22.90625 -7.078125 C 24.09375 -8.046875 24.6875 -9.335938 24.6875 -10.953125 C 24.6875 -12.648438 24.164062 -13.972656 23.125 -14.921875 C 22.082031 -15.867188 20.691406 -16.640625 18.953125 -17.234375 C 17.210938 -17.828125 15.359375 -18.457031 13.390625 -19.125 C 10.191406 -20.226562 7.75 -21.648438 6.0625 -23.390625 C 4.382812 -25.128906 3.546875 -27.4375 3.546875 -30.3125 C 3.515625 -32.757812 4.097656 -34.863281 5.296875 -36.625 C 6.503906 -38.382812 8.15625 -39.742188 10.25 -40.703125 C 12.34375 -41.671875 14.75 -42.15625 17.46875 -42.15625 C 20.226562 -42.15625 22.664062 -41.660156 24.78125 -40.671875 C 26.894531 -39.691406 28.550781 -38.3125 29.75 -36.53125 C 30.957031 -34.757812 31.601562 -32.648438 31.6875 -30.203125 L 23.5625 -30.203125 C 23.53125 -31.660156 22.96875 -32.953125 21.875 -34.078125 C 20.789062 -35.203125 19.28125 -35.765625 17.34375 -35.765625 C 15.6875 -35.804688 14.296875 -35.398438 13.171875 -34.546875 C 12.046875 -33.703125 11.484375 -32.472656 11.484375 -30.859375 C 11.484375 -29.472656 11.914062 -28.375 12.78125 -27.5625 C 13.65625 -26.757812 14.84375 -26.078125 16.34375 -25.515625 C 17.84375 -24.960938 19.5625 -24.375 21.5 -23.75 C 23.550781 -23.039062 25.425781 -22.210938 27.125 -21.265625 C 28.820312 -20.316406 30.179688 -19.0625 31.203125 -17.5 C 32.234375 -15.9375 32.75 -13.929688 32.75 -11.484375 C 32.75 -9.316406 32.195312 -7.304688 31.09375 -5.453125 C 29.988281 -3.597656 28.347656 -2.109375 26.171875 -0.984375 C 24.003906 0.140625 21.34375 0.703125 18.1875 0.703125 Z M 18.1875 0.703125 " />
            </g>
        </g>
    </g>
</svg>