<svg xmlns="http://www.w3.org/2000/svg" xmlns:xlink="http://www.w3.org/1999/xlink" width="100"
    zoomAndPan="magnify" viewBox="0 0 75 74.999997" height="100" preserveAspectRatio="xMidYMid meet"
    version="1.0">
    <defs>
        <g />
        <clipPath id="26b314f2f0">
            <path
                d="M 2.25 2.550781 L 72.75 2.550781 L 72.75 72.449219 L 2.25 72.449219 Z M 2.25 2.550781 "
                clip-rule="nonzero" />
        </clipPath>
        <clipPath id="90446f23e4">
            <path
                d="M 6.75 2.550781 L 68.25 2.550781 C 69.445312 2.550781 70.589844 3.023438 71.433594 3.867188 C 72.277344 4.710938 72.75 5.855469 72.75 7.050781 L 72.75 67.949219 C 72.75 69.144531 72.277344 70.289062 71.433594 71.132812 C 70.589844 71.976562 69.445312 72.449219 68.25 72.449219 L 6.75 72.449219 C 5.554688 72.449219 4.410156 71.976562 3.566406 71.132812 C 2.722656 70.289062 2.25 69.144531 2.25 67.949219 L 2.25 7.050781 C 2.25 4.566406 4.265625 2.550781 6.75 2.550781 Z M 6.75 2.550781 "
                clip-rule="nonzero" />
        </clipPath>
        <clipPath id="957959ba2f">
            <path
                d="M 5.390625 4.949219 L 69.609375 4.949219 L 69.609375 70.050781 L 5.390625 70.050781 Z M 5.390625 4.949219 "
                clip-rule="nonzero" />
        </clipPath>
        <clipPath id="5a95967fb4">
            <path
                d="M 8.390625 4.949219 L 66.609375 4.949219 C 67.402344 4.949219 68.167969 5.265625 68.730469 5.828125 C 69.292969 6.390625 69.609375 7.15625 69.609375 7.949219 L 69.609375 67.050781 C 69.609375 67.84375 69.292969 68.609375 68.730469 69.171875 C 68.167969 69.734375 67.402344 70.050781 66.609375 70.050781 L 8.390625 70.050781 C 7.597656 70.050781 6.832031 69.734375 6.269531 69.171875 C 5.707031 68.609375 5.390625 67.84375 5.390625 67.050781 L 5.390625 7.949219 C 5.390625 7.15625 5.707031 6.390625 6.269531 5.828125 C 6.832031 5.265625 7.597656 4.949219 8.390625 4.949219 Z M 8.390625 4.949219 "
                clip-rule="nonzero" />
        </clipPath>
        <clipPath id="cdb53d8c3a">
            <path
                d="M 5.390625 4.949219 L 69.71875 4.949219 L 69.71875 70.199219 L 5.390625 70.199219 Z M 5.390625 4.949219 "
                clip-rule="nonzero" />
        </clipPath>
        <clipPath id="de69d68936">
            <path
                d="M 8.390625 4.953125 L 66.597656 4.953125 C 67.394531 4.953125 68.15625 5.269531 68.71875 5.832031 C 69.28125 6.394531 69.597656 7.15625 69.597656 7.953125 L 69.597656 67.042969 C 69.597656 67.839844 69.28125 68.601562 68.71875 69.164062 C 68.15625 69.726562 67.394531 70.042969 66.597656 70.042969 L 8.390625 70.042969 C 7.597656 70.042969 6.832031 69.726562 6.269531 69.164062 C 5.707031 68.601562 5.390625 67.839844 5.390625 67.042969 L 5.390625 7.953125 C 5.390625 7.15625 5.707031 6.394531 6.269531 5.832031 C 6.832031 5.269531 7.597656 4.953125 8.390625 4.953125 Z M 8.390625 4.953125 "
                clip-rule="nonzero" />
        </clipPath>
    </defs>
    <rect x="-7.5" width="90" fill="#ffffff" y="-7.5" height="89.999996" fill-opacity="1" />
    <rect x="-7.5" width="90" fill="#000000" y="-7.5" height="89.999996" fill-opacity="1" />
    <g clip-path="url(#26b314f2f0)">
        <g clip-path="url(#90446f23e4)">
            <path fill="#000000"
                d="M 2.25 2.550781 L 72.75 2.550781 L 72.75 72.449219 L 2.25 72.449219 Z M 2.25 2.550781 "
                fill-opacity="1" fill-rule="nonzero" />
        </g>
    </g>
    <g clip-path="url(#957959ba2f)">
        <g clip-path="url(#5a95967fb4)">
            <path fill="#000000"
                d="M 5.390625 4.949219 L 69.609375 4.949219 L 69.609375 70.050781 L 5.390625 70.050781 Z M 5.390625 4.949219 "
                fill-opacity="1" fill-rule="nonzero" />
        </g>
    </g>
    <g clip-path="url(#cdb53d8c3a)">
        <g clip-path="url(#de69d68936)">
            <path stroke-linecap="butt" transform="matrix(0.75, 0, 0, 0.75, 5.392014, 4.953358)"
                fill="none" stroke-linejoin="miter"
                d="M 3.998149 -0.000310821 L 81.607525 -0.000310821 C 82.670025 -0.000310821 83.68565 0.421564 84.43565 1.171564 C 85.18565 1.921564 85.607525 2.937189 85.607525 3.999689 L 85.607525 82.786149 C 85.607525 83.848649 85.18565 84.864274 84.43565 85.614274 C 83.68565 86.364274 82.670025 86.786149 81.607525 86.786149 L 3.998149 86.786149 C 2.940857 86.786149 1.920024 86.364274 1.170024 85.614274 C 0.420024 84.864274 -0.00185149 83.848649 -0.00185149 82.786149 L -0.00185149 3.999689 C -0.00185149 2.937189 0.420024 1.921564 1.170024 1.171564 C 1.920024 0.421564 2.940857 -0.000310821 3.998149 -0.000310821 Z M 3.998149 -0.000310821 "
                stroke="#000000" stroke-width="4" stroke-opacity="1" stroke-miterlimit="4" />
        </g>
    </g>
    <g fill="#0791a6" fill-opacity="1">
        <g transform="translate(1.842189, 49.719991)">
            <g>
                <path
                    d="M 18.015625 0.859375 C 13.140625 0.859375 9.226562 -0.515625 6.28125 -3.265625 C 3.332031 -6.015625 1.859375 -9.925781 1.859375 -15 L 11.0625 -15 C 11.101562 -12.65625 11.648438 -10.789062 12.703125 -9.40625 C 13.753906 -8.019531 15.457031 -7.328125 17.8125 -7.328125 C 20.007812 -7.328125 21.609375 -7.984375 22.609375 -9.296875 C 23.617188 -10.609375 24.125 -12.34375 24.125 -14.5 L 24.125 -50.265625 L 33.3125 -50.265625 L 33.3125 -14.5 C 33.3125 -9.570312 31.9375 -5.78125 29.1875 -3.125 C 26.4375 -0.46875 22.710938 0.859375 18.015625 0.859375 Z M 18.015625 0.859375 " />
            </g>
        </g>
    </g>
    <g fill="#0791a6" fill-opacity="1">
        <g transform="translate(33.637499, 70.796849)">
            <g>
                <path
                    d="M 22.046875 0.859375 C 18.359375 0.859375 15.101562 0.226562 12.28125 -1.03125 C 9.457031 -2.300781 7.226562 -4.125 5.59375 -6.5 C 3.96875 -8.875 3.132812 -11.757812 3.09375 -15.15625 L 12.78125 -15.15625 C 12.875 -12.8125 13.722656 -10.835938 15.328125 -9.234375 C 16.929688 -7.628906 19.148438 -6.828125 21.984375 -6.828125 C 24.421875 -6.828125 26.359375 -7.410156 27.796875 -8.578125 C 29.234375 -9.753906 29.953125 -11.320312 29.953125 -13.28125 C 29.953125 -15.34375 29.316406 -16.945312 28.046875 -18.09375 C 26.773438 -19.25 25.085938 -20.1875 22.984375 -20.90625 C 20.878906 -21.625 18.628906 -22.390625 16.234375 -23.203125 C 12.359375 -24.546875 9.398438 -26.269531 7.359375 -28.375 C 5.328125 -30.476562 4.3125 -33.28125 4.3125 -36.78125 C 4.257812 -39.75 4.960938 -42.296875 6.421875 -44.421875 C 7.890625 -46.554688 9.890625 -48.207031 12.421875 -49.375 C 14.960938 -50.550781 17.882812 -51.140625 21.1875 -51.140625 C 24.539062 -51.140625 27.5 -50.539062 30.0625 -49.34375 C 32.625 -48.144531 34.632812 -46.46875 36.09375 -44.3125 C 37.550781 -42.15625 38.328125 -39.59375 38.421875 -36.625 L 28.59375 -36.625 C 28.539062 -38.40625 27.851562 -39.976562 26.53125 -41.34375 C 25.21875 -42.707031 23.390625 -43.390625 21.046875 -43.390625 C 19.035156 -43.429688 17.347656 -42.9375 15.984375 -41.90625 C 14.617188 -40.882812 13.9375 -39.390625 13.9375 -37.421875 C 13.9375 -35.742188 14.460938 -34.414062 15.515625 -33.4375 C 16.566406 -32.457031 18 -31.628906 19.8125 -30.953125 C 21.632812 -30.285156 23.722656 -29.566406 26.078125 -28.796875 C 28.566406 -27.941406 30.835938 -26.9375 32.890625 -25.78125 C 34.953125 -24.632812 36.601562 -23.113281 37.84375 -21.21875 C 39.09375 -19.332031 39.71875 -16.90625 39.71875 -13.9375 C 39.71875 -11.300781 39.046875 -8.859375 37.703125 -6.609375 C 36.367188 -4.359375 34.382812 -2.550781 31.75 -1.1875 C 29.113281 0.175781 25.878906 0.859375 22.046875 0.859375 Z M 22.046875 0.859375 " />
            </g>
        </g>
    </g>
</svg>