<svg xmlns="http://www.w3.org/2000/svg" xmlns:xlink="http://www.w3.org/1999/xlink" width="100"
    zoomAndPan="magnify" viewBox="0 0 75 74.999997" height="100" preserveAspectRatio="xMidYMid meet"
    version="1.0">
    <defs>
        <g />
        <clipPath id="d847820d4e">
            <path
                d="M 2.25 1.800781 L 72.96875 1.800781 L 72.96875 71.699219 L 2.25 71.699219 Z M 2.25 1.800781 "
                clip-rule="nonzero" />
        </clipPath>
        <clipPath id="ac42ee0b93">
            <path
                d="M 6.75 1.800781 L 68.25 1.800781 C 69.445312 1.800781 70.589844 2.273438 71.433594 3.117188 C 72.277344 3.960938 72.75 5.105469 72.75 6.300781 L 72.75 67.199219 C 72.75 68.394531 72.277344 69.539062 71.433594 70.382812 C 70.589844 71.226562 69.445312 71.699219 68.25 71.699219 L 6.75 71.699219 C 5.554688 71.699219 4.410156 71.226562 3.566406 70.382812 C 2.722656 69.539062 2.25 68.394531 2.25 67.199219 L 2.25 6.300781 C 2.25 3.816406 4.265625 1.800781 6.75 1.800781 Z M 6.75 1.800781 "
                clip-rule="nonzero" />
        </clipPath>
    </defs>
    <rect x="-7.5" width="90" fill="#ffffff" y="-7.5" height="89.999996" fill-opacity="1" />
    <rect x="-7.5" width="90" fill="#000000" y="-7.5" height="89.999996" fill-opacity="1" />
    <g clip-path="url(#d847820d4e)">
        <g clip-path="url(#ac42ee0b93)">
            <path fill="#000000"
                d="M 2.25 1.800781 L 72.695312 1.800781 L 72.695312 71.699219 L 2.25 71.699219 Z M 2.25 1.800781 "
                fill-opacity="1" fill-rule="nonzero" />
        </g>
    </g>
    <rect x="-7.5" width="90" fill="#000000" y="-7.5" height="89.999996" fill-opacity="1" />
    <path stroke-linecap="butt" transform="matrix(0.75, 0, 0, 0.75, 0.0000015, -0.000001)"
        fill="none" stroke-linejoin="miter"
        d="M -0.000002 0.00000133333 L 100.000013 0.00000133333 L 100.000013 100.000016 L -0.000002 100.000016 Z M -0.000002 0.00000133333 "
        stroke="#9ecaff" stroke-width="6" stroke-opacity="1" stroke-miterlimit="4" />
    <g fill="#9ecaff" fill-opacity="1">
        <g transform="translate(7.500001, 55.422182)">
            <g>
                <path
                    d="M 27.242188 -41.453125 L 12.378906 -41.453125 C 11.902344 -41.453125 11.546875 -41.097656 11.546875 -40.625 C 11.546875 -40.152344 11.902344 -39.796875 12.378906 -39.796875 L 15.21875 -39.796875 L 15.21875 -1.304688 C 14.332031 -1.007812 13.324219 -0.886719 12.316406 -0.886719 C 6.871094 -0.886719 2.367188 -5.09375 1.953125 -10.480469 C 1.894531 -10.957031 1.539062 -11.3125 1.066406 -11.3125 L 1.007812 -11.3125 C 0.59375 -11.3125 0.175781 -10.957031 0.175781 -10.480469 L 0.175781 -10.363281 C 0.652344 -4.027344 5.863281 0.886719 12.316406 0.886719 C 19.070312 0.886719 24.457031 -4.679688 24.457031 -11.546875 L 24.457031 -39.796875 L 27.242188 -39.796875 C 27.714844 -39.796875 28.070312 -40.152344 28.070312 -40.625 C 28.070312 -41.097656 27.714844 -41.453125 27.242188 -41.453125 Z M 22.679688 -39.796875 L 22.679688 -11.546875 C 22.679688 -7.402344 20.371094 -3.789062 16.996094 -2.011719 L 16.996094 -39.796875 Z M 22.679688 -39.796875 " />
            </g>
        </g>
    </g>
    <g fill="#9ecaff" fill-opacity="1">
        <g transform="translate(36.012501, 55.422182)">
            <g>
                <path
                    d="M 25.703125 -17.707031 L 8.113281 -38.550781 C 9.832031 -39.796875 12.199219 -40.566406 15.160156 -40.566406 C 19.839844 -40.566406 24.28125 -37.132812 24.28125 -33.695312 L 24.28125 -32.75 C 24.28125 -32.273438 24.695312 -31.859375 25.167969 -31.859375 C 25.640625 -31.859375 26.058594 -32.273438 26.058594 -32.75 L 26.058594 -41.453125 C 26.058594 -41.929688 25.640625 -42.28125 25.167969 -42.28125 C 24.695312 -42.28125 24.28125 -41.929688 24.28125 -41.453125 L 24.28125 -38.195312 C 22.207031 -40.683594 18.65625 -42.34375 15.160156 -42.34375 C 7.875 -42.34375 3.433594 -38.136719 3.433594 -32.75 C 3.433594 -29.964844 4.738281 -26.886719 7.226562 -23.925781 L 23.925781 -4.027344 C 21.96875 -2.132812 19.070312 -0.886719 15.515625 -0.886719 C 9.59375 -0.886719 4.324219 -4.621094 4.324219 -8.765625 L 4.324219 -10.421875 C 4.324219 -10.894531 3.910156 -11.25 3.433594 -11.25 C 2.960938 -11.25 2.546875 -10.894531 2.546875 -10.421875 L 2.546875 0 C 2.546875 0.472656 2.960938 0.828125 3.433594 0.828125 C 3.910156 0.828125 4.324219 0.472656 4.324219 0 L 4.324219 -3.96875 C 6.75 -0.949219 11.3125 0.886719 15.515625 0.886719 C 23.332031 0.886719 28.484375 -4.5 28.484375 -10.421875 C 28.484375 -12.910156 27.65625 -15.398438 25.703125 -17.707031 Z M 5.210938 -32.75 C 5.210938 -34.464844 5.804688 -36.066406 6.808594 -37.367188 L 24.339844 -16.582031 C 25.9375 -14.6875 26.707031 -12.496094 26.707031 -10.421875 C 26.707031 -8.644531 26.117188 -6.871094 25.109375 -5.390625 L 8.585938 -25.050781 C 6.394531 -27.714844 5.210938 -30.320312 5.210938 -32.75 Z M 5.210938 -32.75 " />
            </g>
        </g>
    </g>
</svg>